<?xml version="1.0" encoding="UTF-8" standalone="no"?>
<!-- Generator: Adobe Illustrator 16.0.0, SVG Export Plug-In . SVG Version: 6.00 Build 0)  -->

<svg
   xmlns:dc="http://purl.org/dc/elements/1.1/"
   xmlns:cc="http://creativecommons.org/ns#"
   xmlns:rdf="http://www.w3.org/1999/02/22-rdf-syntax-ns#"
   xmlns:svg="http://www.w3.org/2000/svg"
   xmlns="http://www.w3.org/2000/svg"
   xmlns:sodipodi="http://sodipodi.sourceforge.net/DTD/sodipodi-0.dtd"
   xmlns:inkscape="http://www.inkscape.org/namespaces/inkscape"
   version="1.1"
   id="Layer_1"
   x="0px"
   y="0px"
   width="231.37801"
   height="35.033001"
   viewBox="0 0 231.37801 35.033001"
   enable-background="new 0 0 288 144"
   xml:space="preserve"
   inkscape:version="0.91 r13725"
   sodipodi:docname="TS_LongLogo (1).svg"><metadata
     id="metadata57"><rdf:RDF><cc:Work
         rdf:about=""><dc:format>image/svg+xml</dc:format><dc:type
           rdf:resource="http://purl.org/dc/dcmitype/StillImage" /><dc:title></dc:title></cc:Work></rdf:RDF></metadata><defs
     id="defs55" /><sodipodi:namedview
     pagecolor="#ffffff"
     bordercolor="#666666"
     borderopacity="1"
     objecttolerance="10"
     gridtolerance="10"
     guidetolerance="10"
     inkscape:pageopacity="0"
     inkscape:pageshadow="2"
     inkscape:window-width="1920"
     inkscape:window-height="1018"
     id="namedview53"
     showgrid="false"
     fit-margin-top="0"
     fit-margin-left="0"
     fit-margin-right="0"
     fit-margin-bottom="0"
     inkscape:zoom="4.0416667"
     inkscape:cx="149.13781"
     inkscape:cy="10.639375"
     inkscape:window-x="-8"
     inkscape:window-y="-8"
     inkscape:window-maximized="1"
     inkscape:current-layer="Layer_1" /><g
     id="g3"
     transform="translate(-25.628,-52.576)"><path
       d="m 257.006,87.609 -231.378,0 0,-35.033 231.377,0 0,35.033 z m -229.378,-2 227.377,0 0,-31.033 -227.377,0 0,31.033 z"
       id="path5"
       inkscape:connector-curvature="0"
       style="fill:#ffffff" /></g><g
     id="g7"
     transform="translate(-25.628,-52.576)"><rect
       x="226.72501"
       y="56.494999"
       width="16.063999"
       height="24.665001"
       id="rect9"
       style="fill:#ffffff" /></g><g
     id="g11"
     transform="translate(-25.628,-52.576)"><path
       d="m 38.366,67.819 1.208,-1.242 7.515,6.274 -7.515,6.274 -1.208,-1.23 6.095,-5.021 -6.095,-5.055 z"
       id="path13"
       inkscape:connector-curvature="0"
       style="fill:#ffffff" /><path
       d="m 57.472,66.622 0,12.324 -2.818,0 0,-12.324 -4.004,0 0,-2.293 10.826,0 0,2.293 -4.004,0 z"
       id="path15"
       inkscape:connector-curvature="0"
       style="fill:#ffffff" /><path
       d="m 74.956,72.393 c 0,0.187 -0.006,0.429 -0.017,0.727 -0.011,0.299 -0.028,0.578 -0.05,0.84 l -7.471,0 c 0,0.499 0.077,0.939 0.229,1.318 0.153,0.381 0.369,0.699 0.648,0.957 0.28,0.258 0.615,0.453 1.007,0.587 0.391,0.134 0.826,0.202 1.303,0.202 0.552,0 1.143,-0.043 1.772,-0.129 0.629,-0.086 1.284,-0.227 1.963,-0.42 l 0,2.17 c -0.291,0.082 -0.608,0.156 -0.951,0.224 -0.343,0.068 -0.693,0.126 -1.051,0.179 -0.358,0.053 -0.72,0.092 -1.085,0.117 -0.365,0.026 -0.719,0.039 -1.062,0.039 -0.865,0 -1.641,-0.123 -2.326,-0.369 -0.686,-0.246 -1.268,-0.609 -1.745,-1.09 -0.478,-0.48 -0.843,-1.076 -1.096,-1.783 -0.253,-0.709 -0.38,-1.529 -0.38,-2.461 0,-0.924 0.127,-1.765 0.38,-2.522 0.253,-0.757 0.611,-1.405 1.074,-1.946 0.462,-0.541 1.023,-0.958 1.683,-1.253 0.66,-0.294 1.396,-0.441 2.208,-0.441 0.805,0 1.517,0.125 2.136,0.375 0.619,0.25 1.137,0.598 1.555,1.045 0.417,0.448 0.734,0.981 0.95,1.6 0.216,0.619 0.326,1.296 0.326,2.034 z M 72.182,72.001 C 72.19,71.553 72.134,71.164 72.015,70.832 71.896,70.5 71.733,70.227 71.529,70.01 c -0.206,-0.216 -0.444,-0.376 -0.716,-0.481 -0.272,-0.104 -0.565,-0.157 -0.878,-0.157 -0.686,0 -1.249,0.229 -1.689,0.688 -0.44,0.459 -0.701,1.105 -0.783,1.94 l 4.719,0 z"
       id="path17"
       inkscape:connector-curvature="0"
       style="fill:#ffffff" /><path
       d="m 87.99,78.51 c -0.537,0.217 -1.092,0.377 -1.667,0.481 -0.575,0.104 -1.174,0.156 -1.801,0.156 -0.902,0 -1.711,-0.123 -2.427,-0.369 -0.716,-0.245 -1.323,-0.61 -1.823,-1.096 -0.5,-0.486 -0.882,-1.085 -1.146,-1.801 -0.264,-0.716 -0.397,-1.543 -0.397,-2.482 0,-0.91 0.144,-1.733 0.431,-2.472 0.287,-0.739 0.691,-1.368 1.213,-1.89 0.522,-0.522 1.15,-0.924 1.884,-1.208 0.734,-0.283 1.553,-0.425 2.455,-0.425 0.738,0 1.359,0.039 1.862,0.118 0.503,0.078 0.957,0.177 1.359,0.296 l 0,2.65 c -0.462,-0.231 -0.963,-0.41 -1.504,-0.537 -0.541,-0.126 -1.053,-0.19 -1.538,-0.19 -0.507,0 -0.961,0.086 -1.364,0.257 -0.403,0.171 -0.742,0.41 -1.018,0.716 -0.276,0.306 -0.487,0.676 -0.632,1.113 -0.146,0.436 -0.218,0.915 -0.218,1.438 0,0.544 0.078,1.032 0.235,1.465 0.157,0.432 0.378,0.799 0.666,1.102 0.287,0.302 0.632,0.533 1.034,0.693 0.403,0.16 0.85,0.24 1.342,0.24 0.238,0 0.49,-0.018 0.755,-0.051 0.265,-0.033 0.529,-0.082 0.794,-0.145 0.265,-0.064 0.526,-0.137 0.783,-0.219 0.257,-0.082 0.498,-0.172 0.722,-0.268 l 0,2.428 z"
       id="path19"
       inkscape:connector-curvature="0"
       style="fill:#ffffff" /><path
       d="m 99.312,78.946 0,-7.403 c 0,-1.245 -0.462,-1.868 -1.387,-1.868 -0.462,0 -0.904,0.186 -1.325,0.559 -0.421,0.373 -0.867,0.88 -1.336,1.521 l 0,7.191 -2.729,0 0,-15.802 2.729,0 0,3.892 -0.134,2.058 c 0.231,-0.276 0.466,-0.524 0.705,-0.744 0.239,-0.22 0.496,-0.404 0.772,-0.553 0.275,-0.149 0.574,-0.263 0.895,-0.341 0.32,-0.078 0.675,-0.117 1.063,-0.117 0.582,0 1.088,0.095 1.521,0.285 0.432,0.19 0.794,0.458 1.085,0.805 0.291,0.347 0.509,0.764 0.654,1.252 0.146,0.488 0.218,1.035 0.218,1.638 l 0,7.627 -2.731,0 z"
       id="path21"
       inkscape:connector-curvature="0"
       style="fill:#ffffff" /><path
       d="m 129.863,74.529 c 0,0.797 -0.147,1.49 -0.442,2.08 -0.294,0.588 -0.707,1.075 -1.236,1.459 -0.529,0.385 -1.159,0.67 -1.89,0.855 -0.731,0.187 -1.529,0.279 -2.394,0.279 -0.768,0 -1.51,-0.045 -2.226,-0.134 -0.716,-0.089 -1.424,-0.239 -2.125,-0.447 l 0,-2.718 c 0.343,0.119 0.701,0.231 1.073,0.336 0.373,0.104 0.748,0.195 1.124,0.273 0.376,0.078 0.751,0.141 1.124,0.185 0.373,0.045 0.734,0.067 1.085,0.067 0.521,0 0.965,-0.045 1.331,-0.135 0.365,-0.089 0.664,-0.212 0.895,-0.369 0.231,-0.156 0.398,-0.342 0.503,-0.559 0.105,-0.217 0.157,-0.455 0.157,-0.716 0,-0.358 -0.103,-0.657 -0.308,-0.9 -0.205,-0.242 -0.475,-0.456 -0.811,-0.644 -0.336,-0.186 -0.718,-0.354 -1.146,-0.502 -0.429,-0.149 -0.865,-0.31 -1.309,-0.481 -0.444,-0.171 -0.88,-0.365 -1.309,-0.582 -0.429,-0.217 -0.811,-0.485 -1.146,-0.805 -0.335,-0.321 -0.606,-0.703 -0.811,-1.146 -0.205,-0.443 -0.308,-0.979 -0.308,-1.605 0,-0.574 0.104,-1.118 0.313,-1.633 0.208,-0.514 0.537,-0.963 0.984,-1.348 0.447,-0.384 1.021,-0.689 1.722,-0.917 0.701,-0.227 1.547,-0.341 2.539,-0.341 0.291,0 0.594,0.013 0.911,0.039 0.317,0.026 0.63,0.06 0.939,0.101 0.309,0.041 0.608,0.089 0.895,0.146 0.287,0.056 0.549,0.114 0.788,0.173 l 0,2.516 c -0.239,-0.089 -0.5,-0.171 -0.783,-0.246 -0.283,-0.074 -0.576,-0.14 -0.878,-0.196 -0.302,-0.056 -0.606,-0.099 -0.912,-0.128 -0.306,-0.029 -0.596,-0.045 -0.872,-0.045 -0.485,0 -0.895,0.04 -1.23,0.118 -0.335,0.078 -0.611,0.187 -0.827,0.324 -0.217,0.138 -0.373,0.308 -0.47,0.509 -0.097,0.201 -0.146,0.425 -0.146,0.671 0,0.306 0.103,0.569 0.308,0.789 0.205,0.22 0.477,0.417 0.816,0.593 0.339,0.175 0.723,0.339 1.152,0.492 0.429,0.153 0.868,0.317 1.319,0.492 0.451,0.175 0.891,0.375 1.32,0.598 0.429,0.223 0.813,0.496 1.152,0.816 0.339,0.321 0.611,0.699 0.816,1.135 0.211,0.438 0.313,0.954 0.313,1.551 z"
       id="path23"
       inkscape:connector-curvature="0"
       style="fill:#ffffff" /><path
       d="m 140.582,77.705 c -0.396,0.984 -0.807,1.847 -1.236,2.589 -0.429,0.741 -0.9,1.36 -1.415,1.856 -0.515,0.496 -1.087,0.869 -1.717,1.118 -0.63,0.25 -1.336,0.375 -2.119,0.375 -0.187,0 -0.39,-0.01 -0.61,-0.028 -0.22,-0.019 -0.445,-0.047 -0.676,-0.084 l 0,-2.314 c 0.089,0.015 0.192,0.031 0.308,0.051 0.115,0.018 0.236,0.033 0.363,0.044 0.126,0.011 0.255,0.021 0.386,0.028 0.13,0.007 0.251,0.011 0.364,0.011 0.313,0 0.604,-0.06 0.872,-0.179 0.268,-0.119 0.516,-0.285 0.744,-0.498 0.228,-0.213 0.434,-0.466 0.621,-0.76 0.187,-0.295 0.351,-0.617 0.492,-0.968 l -4.507,-11.362 3.042,0 2.359,6.441 0.705,2.08 0.693,-1.99 2.382,-6.531 2.93,0 -3.981,10.121 z"
       id="path25"
       inkscape:connector-curvature="0"
       style="fill:#ffffff" /><path
       d="m 155.506,78.946 0,-7.739 c 0,-0.283 -0.008,-0.531 -0.023,-0.744 -0.015,-0.212 -0.045,-0.389 -0.089,-0.531 -0.045,-0.141 -0.11,-0.248 -0.196,-0.318 -0.086,-0.07 -0.203,-0.106 -0.352,-0.106 -0.231,0 -0.459,0.157 -0.683,0.47 -0.224,0.313 -0.478,0.846 -0.761,1.599 l 0,7.37 -2.337,0 0,-7.739 c 0,-0.283 -0.007,-0.531 -0.022,-0.744 -0.016,-0.212 -0.045,-0.389 -0.09,-0.531 -0.045,-0.141 -0.111,-0.248 -0.201,-0.318 -0.09,-0.07 -0.209,-0.106 -0.357,-0.106 -0.194,0 -0.41,0.157 -0.648,0.47 -0.239,0.313 -0.504,0.846 -0.795,1.599 l 0,7.37 -2.359,0 0,-11.364 2.024,0 0.045,1.655 c 0.163,-0.335 0.327,-0.622 0.491,-0.861 0.164,-0.239 0.34,-0.435 0.526,-0.587 0.186,-0.152 0.386,-0.263 0.599,-0.33 0.212,-0.067 0.453,-0.101 0.721,-0.101 0.634,0 1.117,0.166 1.449,0.498 0.331,0.332 0.52,0.792 0.564,1.381 0.179,-0.335 0.355,-0.622 0.531,-0.861 0.175,-0.239 0.357,-0.435 0.547,-0.587 0.191,-0.153 0.396,-0.263 0.615,-0.33 0.221,-0.067 0.465,-0.101 0.732,-0.101 0.828,0 1.439,0.289 1.835,0.867 0.396,0.578 0.593,1.433 0.593,2.566 l 0,8.153 -2.359,0 z"
       id="path27"
       inkscape:connector-curvature="0"
       style="fill:#ffffff" /><path
       d="m 171.446,73.064 c 0,1.043 -0.147,1.945 -0.442,2.705 -0.294,0.762 -0.704,1.393 -1.229,1.896 -0.526,0.503 -1.146,0.876 -1.862,1.118 -0.716,0.242 -1.494,0.363 -2.338,0.363 -0.283,0 -0.566,-0.019 -0.85,-0.056 -0.284,-0.037 -0.541,-0.086 -0.771,-0.146 l 0,4.44 -2.729,0 0,-15.8 2.359,0 0.067,1.677 c 0.231,-0.291 0.472,-0.555 0.722,-0.794 0.25,-0.239 0.52,-0.442 0.811,-0.609 0.291,-0.168 0.604,-0.296 0.939,-0.386 0.336,-0.09 0.712,-0.134 1.129,-0.134 0.672,0 1.268,0.134 1.79,0.402 0.521,0.269 0.96,0.651 1.313,1.146 0.354,0.496 0.625,1.096 0.811,1.8 0.188,0.706 0.28,1.498 0.28,2.378 z m -2.863,0.112 c 0,-0.626 -0.044,-1.16 -0.134,-1.6 -0.09,-0.44 -0.219,-0.801 -0.387,-1.084 -0.167,-0.284 -0.372,-0.49 -0.614,-0.621 -0.243,-0.13 -0.521,-0.195 -0.833,-0.195 -0.463,0 -0.904,0.186 -1.326,0.559 -0.421,0.373 -0.866,0.88 -1.336,1.521 l 0,4.965 c 0.217,0.082 0.482,0.149 0.8,0.201 0.317,0.053 0.64,0.078 0.968,0.078 0.432,0 0.825,-0.09 1.18,-0.268 0.354,-0.18 0.656,-0.433 0.906,-0.761 0.249,-0.328 0.441,-0.729 0.575,-1.202 0.134,-0.473 0.201,-1.004 0.201,-1.593 z"
       id="path29"
       inkscape:connector-curvature="0"
       style="fill:#ffffff" /><path
       d="m 185.195,73.176 c 0,0.895 -0.127,1.713 -0.381,2.455 -0.253,0.742 -0.619,1.377 -1.096,1.906 -0.477,0.529 -1.063,0.939 -1.756,1.23 -0.693,0.291 -1.483,0.436 -2.371,0.436 -0.842,0 -1.596,-0.123 -2.259,-0.369 -0.663,-0.246 -1.227,-0.613 -1.688,-1.102 -0.463,-0.488 -0.816,-1.1 -1.063,-1.834 -0.247,-0.734 -0.369,-1.59 -0.369,-2.566 0,-0.902 0.129,-1.722 0.386,-2.46 0.257,-0.738 0.626,-1.368 1.107,-1.89 0.481,-0.522 1.067,-0.927 1.761,-1.214 0.693,-0.287 1.477,-0.43 2.35,-0.43 0.85,0 1.605,0.125 2.27,0.375 0.664,0.25 1.227,0.621 1.689,1.113 0.462,0.492 0.814,1.102 1.057,1.829 0.242,0.725 0.363,1.566 0.363,2.521 z m -2.841,0.066 c 0,-1.177 -0.222,-2.063 -0.665,-2.656 -0.443,-0.593 -1.098,-0.889 -1.963,-0.889 -0.478,0 -0.884,0.094 -1.219,0.28 -0.336,0.187 -0.611,0.442 -0.828,0.766 -0.217,0.324 -0.375,0.703 -0.475,1.135 -0.102,0.432 -0.151,0.895 -0.151,1.387 0,1.186 0.238,2.078 0.716,2.678 0.477,0.601 1.129,0.9 1.957,0.9 0.455,0 0.85,-0.092 1.186,-0.273 0.336,-0.184 0.607,-0.437 0.816,-0.762 0.209,-0.324 0.365,-0.705 0.47,-1.146 0.105,-0.441 0.156,-0.912 0.156,-1.42 z"
       id="path31"
       inkscape:connector-curvature="0"
       style="fill:#ffffff" /><path
       d="m 198.072,75.603 c 0,0.648 -0.144,1.202 -0.431,1.661 -0.287,0.458 -0.667,0.831 -1.141,1.117 -0.474,0.287 -1.011,0.496 -1.61,0.627 -0.599,0.131 -1.213,0.195 -1.84,0.195 -0.835,0 -1.588,-0.039 -2.259,-0.117 -0.671,-0.078 -1.306,-0.191 -1.901,-0.341 l 0,-2.46 c 0.701,0.29 1.4,0.501 2.098,0.631 0.696,0.131 1.354,0.196 1.973,0.196 0.717,0 1.251,-0.114 1.605,-0.341 0.354,-0.228 0.531,-0.523 0.531,-0.89 0,-0.171 -0.037,-0.327 -0.111,-0.47 -0.075,-0.142 -0.215,-0.277 -0.42,-0.408 -0.205,-0.131 -0.494,-0.264 -0.867,-0.402 -0.373,-0.138 -0.861,-0.293 -1.465,-0.465 -0.559,-0.156 -1.049,-0.333 -1.471,-0.531 -0.421,-0.197 -0.77,-0.43 -1.045,-0.698 -0.276,-0.269 -0.483,-0.58 -0.621,-0.934 -0.139,-0.354 -0.207,-0.77 -0.207,-1.247 0,-0.462 0.104,-0.898 0.313,-1.309 0.209,-0.41 0.521,-0.77 0.935,-1.079 0.413,-0.31 0.93,-0.554 1.549,-0.733 0.618,-0.179 1.342,-0.268 2.169,-0.268 0.717,0 1.35,0.037 1.902,0.112 0.551,0.075 1.039,0.156 1.465,0.246 l 0,2.225 c -0.648,-0.208 -1.258,-0.356 -1.828,-0.441 -0.57,-0.086 -1.136,-0.129 -1.695,-0.129 -0.559,0 -1.008,0.101 -1.348,0.302 -0.339,0.201 -0.508,0.481 -0.508,0.839 0,0.171 0.033,0.324 0.1,0.458 0.067,0.134 0.199,0.265 0.397,0.391 0.197,0.127 0.474,0.259 0.827,0.397 0.354,0.138 0.822,0.289 1.404,0.453 0.656,0.187 1.207,0.386 1.654,0.598 0.447,0.212 0.808,0.453 1.08,0.722 0.271,0.268 0.467,0.574 0.587,0.916 0.12,0.345 0.179,0.736 0.179,1.177 z"
       id="path33"
       inkscape:connector-curvature="0"
       style="fill:#ffffff" /><path
       d="m 206.106,69.708 -3.21,0 0,-2.125 6.006,0 0,9.237 3.277,0 0,2.125 -9.674,0 0,-2.125 3.601,0 0,-7.112 z m 3.02,-5.233 c 0,0.246 -0.044,0.478 -0.134,0.693 -0.09,0.216 -0.215,0.405 -0.375,0.565 -0.16,0.16 -0.349,0.287 -0.564,0.38 -0.217,0.093 -0.451,0.14 -0.705,0.14 -0.254,0 -0.49,-0.046 -0.71,-0.14 -0.22,-0.094 -0.41,-0.22 -0.57,-0.38 -0.161,-0.16 -0.285,-0.349 -0.374,-0.565 -0.09,-0.216 -0.135,-0.447 -0.135,-0.693 0,-0.246 0.045,-0.477 0.135,-0.693 0.089,-0.216 0.213,-0.406 0.374,-0.57 0.16,-0.164 0.351,-0.292 0.57,-0.386 0.219,-0.094 0.456,-0.14 0.71,-0.14 0.254,0 0.488,0.046 0.705,0.14 0.216,0.093 0.404,0.222 0.564,0.386 0.16,0.164 0.285,0.354 0.375,0.57 0.09,0.216 0.134,0.447 0.134,0.693 z"
       id="path35"
       inkscape:connector-curvature="0"
       style="fill:#ffffff" /><path
       d="m 218.883,67.584 0,7.403 c 0,0.619 0.115,1.087 0.346,1.403 0.232,0.317 0.582,0.476 1.052,0.476 0.455,0 0.894,-0.188 1.314,-0.565 0.421,-0.376 0.866,-0.885 1.337,-1.525 l 0,-7.191 2.729,0 0,11.362 -2.36,0 -0.067,-1.678 c -0.238,0.291 -0.48,0.556 -0.727,0.794 -0.247,0.238 -0.513,0.441 -0.799,0.609 -0.287,0.168 -0.602,0.299 -0.939,0.392 -0.34,0.093 -0.715,0.14 -1.125,0.14 -0.581,0 -1.09,-0.095 -1.526,-0.285 -0.437,-0.189 -0.8,-0.46 -1.091,-0.811 -0.29,-0.35 -0.508,-0.77 -0.654,-1.258 -0.145,-0.488 -0.217,-1.035 -0.217,-1.639 l 0,-7.627 2.727,0 z"
       id="path37"
       inkscape:connector-curvature="0"
       style="fill:#ffffff" /><path
       d="m 237.934,78.946 0,-7.739 c 0,-0.283 -0.008,-0.531 -0.023,-0.744 -0.015,-0.212 -0.045,-0.389 -0.089,-0.531 -0.045,-0.141 -0.11,-0.248 -0.196,-0.318 -0.086,-0.07 -0.203,-0.106 -0.352,-0.106 -0.231,0 -0.459,0.157 -0.683,0.47 -0.224,0.313 -0.478,0.846 -0.761,1.599 l 0,7.37 -2.337,0 0,-7.739 c 0,-0.283 -0.007,-0.531 -0.022,-0.744 -0.016,-0.212 -0.045,-0.389 -0.09,-0.531 -0.045,-0.141 -0.111,-0.248 -0.201,-0.318 -0.09,-0.07 -0.209,-0.106 -0.357,-0.106 -0.194,0 -0.41,0.157 -0.648,0.47 -0.239,0.313 -0.504,0.846 -0.795,1.599 l 0,7.37 -2.359,0 0,-11.364 2.024,0 0.045,1.655 c 0.163,-0.335 0.327,-0.622 0.491,-0.861 0.164,-0.239 0.34,-0.435 0.526,-0.587 0.186,-0.152 0.386,-0.263 0.599,-0.33 0.212,-0.067 0.453,-0.101 0.721,-0.101 0.634,0 1.117,0.166 1.449,0.498 0.331,0.332 0.52,0.792 0.564,1.381 0.179,-0.335 0.355,-0.622 0.531,-0.861 0.175,-0.239 0.357,-0.435 0.547,-0.587 0.191,-0.153 0.396,-0.263 0.615,-0.33 0.221,-0.067 0.465,-0.101 0.732,-0.101 0.828,0 1.439,0.289 1.835,0.867 0.396,0.578 0.593,1.433 0.593,2.566 l 0,8.153 -2.359,0 z"
       id="path39"
       inkscape:connector-curvature="0" /></g><g
     id="g41"
     transform="translate(-25.628,-52.576)" /><g
     id="g43"
     transform="translate(-25.628,-52.576)" /><g
     id="g45"
     transform="translate(-25.628,-52.576)" /><g
     id="g47"
     transform="translate(-25.628,-52.576)" /><g
     id="g49"
     transform="translate(-25.628,-52.576)" /><g
     id="g51"
     transform="translate(-25.628,-52.576)" /></svg>